<?xml version="1.0" encoding="UTF-8"?>
<svg id="Layer_1" data-name="Layer 1" xmlns="http://www.w3.org/2000/svg" viewBox="0 0 800 800">
  <defs>
    
  </defs>
  <polygon class="cls-1" points="740.53 475.6 740.53 475.71 740.57 475.6 740.53 475.6"></polygon>
  <path class="cls-1" d="M731.54,458.21l-196.48-113.44c-2.7-1.56-5.67-2.24-8.58-2.17-2.92-.08-5.9.6-8.62,2.17l-55.93,32.29c-8.27-8.13-19.61-13.16-32.12-13.16-25.32,0-45.85,20.53-45.85,45.85,0,3.96.56,7.79,1.5,11.46l-43.92,25.36c-7.09-16.71-9.57-35.84-5.83-55.77,7.18-38.25,37.56-68.55,75.82-75.67,17.71-3.3,34.77-1.67,50.06,3.72,8.77,3.09,17.96-3.37,17.96-12.66,0-6.7-4.23-12.72-10.59-14.84-20.18-6.73-42.64-8.44-65.91-3.53-12.69,2.68-24.66,7.34-35.59,13.62-8.39,3.23-28.56,8.5-43.96-7.58-22.82-23.85,3.81-46.49,6.79-48.89,26.56-15.93,57.15-25.74,89.83-27.33,49.37-2.41,94.96,13.74,130.48,42.02,5.82,4.63,14.05,4.64,19.9.04h0c7.53-5.91,7.74-17.36.29-23.36-40.9-32.92-93.47-51.88-150.45-49.54-116.81,4.81-211.33,99.75-215.66,216.58-1.14,30.65,3.91,60.01,13.95,86.96l-.03-.02s12.01,32.75-15.61,43.64c-27.67,10.91-42.52-15.83-42.52-15.83l-.12.29c-12.61-30.1-20.09-62.32-21.86-95.43-4.27-80.18,23.77-156.4,78.97-214.62,55.26-58.28,129.79-90.39,209.86-90.39,86.17,0,167.3,38.19,222.58,104.78,5.28,6.36,14.24,7.9,21.3,3.65,3.51-2.11,5.93-5.65,6.64-9.69.7-4.02-.37-8.14-2.95-11.29-78.06-95.57-202.23-137.27-324.08-108.79-32.56,7.61-63.06,20.13-90.73,36.75-15.29,6.99-33.76,5.26-47.63-5.71.56-16.09-8.9-34.49-23.94-43.83-13.03-8.09-31.83-12.34-47.13-9.95-18.94,2.96-34.98,11.4-54.87,8.42-7.78-1.17-15.48-3.82-23.31-3.09-1.47.14-3.19.61-3.65,2-.31.95.1,1.97.52,2.87,5.09,10.99,13.43,19.79,20.41,29.52,7.03,9.79,15.56,18.47,25.27,25.61,15.4,11.33,31.48,17.3,48.5,18.98,10.07,1,20.46.49,31.23-1.3,10.36-1.72,17.41-6.33,21.71-12.5,7.28,4.66,15.28,7.65,23.48,9-53.97,41.41-93.8,99.93-111.66,168.09-25.99,99.16-5.86,201.44,55.22,280.6,61.15,79.24,153.4,124.68,253.1,124.68,50.43,0,100.11-12.12,144.7-34.8,1.64-.83,3.27-1.69,4.9-2.54.25-.13.5-.27.75-.4,16.62-8.77,32.53-18.97,47.44-30.62v-.45c1.06-.83,2.12-1.66,3.16-2.51,55.83-45.32,95.18-108.65,110.78-178.33l.21-.92c.04-.16.07-.31.11-.47l.04-.16h0c1.33-6.69-1.63-13.77-7.86-17.37ZM486.09,690.12v-156.08h85.8v123.92c-4.17,2.4-8.4,4.7-12.7,6.9-22.87,11.54-47.41,20.11-73.1,25.26ZM604.46,636.15v-118.39c0-8.97-7.27-16.28-16.28-16.28h-118.37c-8.97,0-16.28,7.31-16.28,16.28v177c-2.97.25-5.94.46-8.93.62v.6c-9.55.56-19.2.68-28.95.29-71.71-2.84-139.62-32.41-191.22-83.27-2.4-2.36-4.74-4.78-7.04-7.21-1.07-1.64-17.31-27.41,5.96-42.12,21.08-13.32,39.2-.11,46.03,6.2.9.91,1.79,1.82,2.7,2.71.12.14.2.23.2.23l-.04-.08c29.21,28.62,66.13,49.39,107.34,58.81,9.82,2.25,19.18-5.65,18.09-16.01-.75-7.1-6.28-12.85-13.23-14.51-88.2-21.16-153.23-102.53-148.93-198.06,1.22-27.01,8.06-52.62,19.32-75.73,2.03-3.08,19.67-28.01,47.25-9.37,25.85,17.46,9.43,51.88,9.43,51.88l.38-.29c-1.48,4.48-2.72,9.07-3.68,13.76-12.28,60.06,19.12,114.76,68.2,138.21,9.29,4.44,20.61-1.98,20.66-12.27.02-5.68-3.23-10.87-8.35-13.32-11.15-5.31-21.11-12.74-29.39-21.72l45.21-26.1c7.25,4.8,15.93,7.61,25.27,7.61,25.32,0,45.85-20.53,45.85-45.85,0-.92-.08-1.83-.14-2.74l50.94-29.41,180.36,104.13c-16.74,63.09-53.46,116.59-102.36,154.4Z"></path>
</svg>