<?xml version="1.0" encoding="UTF-8"?>
<svg id="Layer_1" data-name="Layer 1" xmlns="http://www.w3.org/2000/svg" viewBox="0 0 1800 600">
  <defs>
    <style>
      .cls-1 {
        fill: #fff;
      }
    </style>
  </defs>
  <g>
    <polygon class="cls-1" points="403.92 335.76 403.92 335.81 403.94 335.76 403.92 335.76"/>
    <path class="cls-1" d="M399.67,327.53l-92.93-53.65c-1.28-.74-2.68-1.06-4.06-1.03-1.38-.04-2.79.28-4.08,1.03l-26.45,15.27c-3.91-3.85-9.27-6.22-15.19-6.22-11.98,0-21.69,9.71-21.69,21.69,0,1.87.26,3.68.71,5.42l-20.77,11.99c-3.35-7.9-4.53-16.95-2.76-26.38,3.4-18.09,17.76-32.42,35.86-35.79,8.37-1.56,16.44-.79,23.68,1.76,4.15,1.46,8.49-1.59,8.49-5.99,0-3.17-2-6.01-5.01-7.02-9.55-3.18-20.17-3.99-31.17-1.67-6,1.27-11.67,3.47-16.83,6.44-3.97,1.53-13.51,4.02-20.79-3.59-10.79-11.28,1.8-21.99,3.21-23.12,12.56-7.53,27.03-12.17,42.49-12.93,23.35-1.14,44.91,6.5,61.71,19.88,2.75,2.19,6.65,2.19,9.41.02h0c3.56-2.8,3.66-8.21.14-11.05-19.34-15.57-44.21-24.54-71.16-23.43-55.25,2.28-99.95,47.18-102,102.43-.54,14.5,1.85,28.38,6.6,41.13h-.02s5.68,15.48-7.38,20.63c-13.09,5.16-20.11-7.49-20.11-7.49l-.06.14c-5.97-14.24-9.5-29.47-10.34-45.13-2.02-37.92,11.24-73.97,37.35-101.51,26.14-27.57,61.39-42.75,99.26-42.75,40.76,0,79.13,18.06,105.27,49.56,2.5,3.01,6.73,3.73,10.07,1.72,1.66-1,2.81-2.67,3.14-4.59.33-1.9-.18-3.85-1.39-5.34-36.92-45.2-95.65-64.92-153.28-51.45-15.4,3.6-29.83,9.52-42.91,17.38-7.23,3.3-15.97,2.49-22.53-2.7.26-7.61-4.21-16.31-11.32-20.73-6.16-3.83-15.06-5.84-22.29-4.71-8.96,1.4-16.54,5.39-25.95,3.98-3.68-.55-7.32-1.81-11.03-1.46-.69.06-1.51.29-1.72.95-.15.45.05.93.24,1.36,2.41,5.2,6.35,9.36,9.65,13.96,3.32,4.63,7.36,8.73,11.95,12.11,7.28,5.36,14.89,8.18,22.94,8.98,4.76.47,9.68.23,14.77-.61,4.9-.81,8.23-2.99,10.27-5.91,3.44,2.21,7.23,3.62,11.1,4.26-25.53,19.59-44.36,47.27-52.81,79.5-12.29,46.9-2.77,95.27,26.12,132.71,28.92,37.48,72.55,58.97,119.71,58.97,23.85,0,47.35-5.73,68.44-16.46.78-.39,1.55-.8,2.32-1.2.12-.06.24-.13.36-.19,7.86-4.15,15.38-8.97,22.44-14.48v-.21c.5-.39,1-.79,1.5-1.19,26.41-21.43,45.02-51.39,52.4-84.34l.1-.43c.02-.07.03-.15.05-.22l.02-.08h0c.63-3.16-.77-6.51-3.72-8.22ZM283.58,437.22v-73.82h40.58v58.61c-1.97,1.14-3.98,2.22-6.01,3.26-10.82,5.46-22.42,9.51-34.58,11.95ZM339.56,411.69v-56c0-4.24-3.44-7.7-7.7-7.7h-55.99c-4.24,0-7.7,3.46-7.7,7.7v83.72c-1.4.12-2.81.22-4.22.29v.28c-4.52.27-9.08.32-13.69.14-33.92-1.34-66.04-15.33-90.44-39.38-1.13-1.12-2.24-2.26-3.33-3.41-.5-.78-8.18-12.97,2.82-19.92,9.97-6.3,18.54-.05,21.77,2.93.42.43.85.86,1.28,1.28.06.07.09.11.09.11l-.02-.04c13.81,13.54,31.28,23.36,50.77,27.82,4.64,1.06,9.07-2.67,8.56-7.57-.35-3.36-2.97-6.08-6.26-6.86-41.72-10.01-72.47-48.49-70.44-93.68.58-12.78,3.81-24.89,9.14-35.82.96-1.46,9.3-13.25,22.35-4.43,12.23,8.26,4.46,24.54,4.46,24.54l.18-.14c-.7,2.12-1.29,4.29-1.74,6.51-5.81,28.41,9.04,54.28,32.26,65.37,4.39,2.1,9.75-.94,9.77-5.81.01-2.69-1.53-5.14-3.95-6.3-5.28-2.51-9.98-6.02-13.9-10.27l21.38-12.34c3.43,2.27,7.53,3.6,11.95,3.6,11.98,0,21.69-9.71,21.69-21.69,0-.44-.04-.86-.07-1.3l24.09-13.91,85.31,49.25c-7.92,29.84-25.28,55.14-48.41,73.03Z"/>
  </g>
  <g>
    <path class="cls-1" d="M1717.68,321.83c0,2.06-3.26,3.73-7.3,3.73h-421.33c-2,0-3.86-.41-5.17-1.08-1.32-.67-2.12-1.62-2.12-2.64,0-2.06,3.26-3.73,7.3-3.73h421.33c2,0,3.86.41,5.17,1.08,1.32.67,2.12,1.62,2.12,2.64Z"/>
    <path class="cls-1" d="M884.07,321.83c0,2.06-3.31,3.73-7.41,3.73h-427.78c-2.03,0-3.92-.41-5.25-1.08-1.34-.67-2.16-1.62-2.16-2.64,0-2.06,3.31-3.73,7.41-3.73h427.78c2.03,0,3.92.41,5.25,1.08,1.34.67,2.16,1.62,2.16,2.64Z"/>
    <g>
      <path class="cls-1" d="M492.02,148.18c-.86-1.72-2.25-2.08-3.26-2.08h-1.39c-1.01,0-2.4.36-3.27,2.12l-42.26,93.55c-.54,1.18-.49,2.43.15,3.44.65,1.01,1.78,1.59,3.12,1.59h5.56c1.68,0,2.86-1.08,3.28-2.12l9.88-22.34h48.05l10.01,22.31c.43,1.07,1.61,2.16,3.29,2.16h5.56c1.34,0,2.47-.58,3.12-1.59.64-1,.7-2.26.16-3.43l-42-93.59ZM507.24,211.71h-38.62l19.31-43.39c3.29,7.32,6.59,14.78,9.79,22,3.11,7.02,6.32,14.27,9.52,21.39Z"/>
      <path class="cls-1" d="M571.72,190.38c-12.89-5.37-18.15-10.78-18.15-18.68,0-11.3,11.89-14.29,18.18-14.29,3.42,0,9.21,1.04,17.3,6.01.19.12.33.2.42.25,2.56,1.44,4.59.92,6.19-1.57.28-.43.57-.89.85-1.35.27-.44.54-.88.83-1.31,1.01-1.61.96-2.92.73-3.73-.33-1.2-1.21-2.02-1.89-2.39-.92-.63-10.88-7.23-24.29-7.23-22.46,0-30.61,15.4-30.61,25.74,0,15.77,8.81,22.6,25.08,29.7,15.02,6.27,23.71,11.72,23.71,21.04,0,8.15-7.58,14.29-17.63,14.29s-18.37-6.33-22.58-10.1l-.26-.23c-.92-.79-1.88-1.14-2.84-1.04-1.54.16-2.72,1.47-3.44,2.41-.35.43-.71.89-1.06,1.35-.34.44-.68.88-1.02,1.29l-.08.11c-2.08,3.3-.19,4.95.94,5.94l.06.05c2.08,1.92,13.33,11.52,30.01,11.52s31.03-11.43,31.03-26.02c0-17.53-14.26-24.77-31.48-31.78Z"/>
      <rect class="cls-1" x="621.34" y="147.49" width="12.84" height="99.31" rx="3.64" ry="3.64"/>
      <path class="cls-1" d="M697.46,148.18c-.86-1.72-2.25-2.08-3.26-2.08h-1.39c-1.01,0-2.4.36-3.27,2.12l-42.26,93.55c-.54,1.18-.49,2.43.15,3.44.65,1.01,1.78,1.59,3.12,1.59h5.56c1.68,0,2.86-1.08,3.28-2.12l9.88-22.34h48.05l10.01,22.31c.43,1.07,1.61,2.16,3.29,2.16h5.56c1.34,0,2.47-.58,3.12-1.59.64-1,.7-2.26.16-3.43l-42-93.59ZM712.68,211.71h-38.62l19.31-43.39c3.29,7.32,6.59,14.78,9.79,22,3.11,7.02,6.32,14.27,9.52,21.39Z"/>
      <path class="cls-1" d="M860.59,200.32h-24.05c-2.08,0-3.64,1.57-3.64,3.64v5.14c0,1.96,1.6,3.5,3.64,3.5h14.99v17.87c-2.13,1.13-11.09,5.43-24.02,5.43-20.76,0-37.64-17.57-37.64-39.17s16.89-38.9,37.64-38.9c8.48,0,18.34,4.06,25.74,10.58.82.74,1.72,1.43,2.78,1.37,1-.05,1.73-.72,2.25-1.31.72-.81,1.65-1.7,2.54-2.57.45-.44.9-.87,1.31-1.28.73-.73,1.11-1.69,1.06-2.7-.05-.96-.47-1.88-1.25-2.66-10.68-9.11-21.25-13.17-34.29-13.17-28.22,0-51.18,22.96-51.18,51.18,0,13.7,5.31,26.51,14.96,36.09,9.63,9.55,22.49,14.82,36.22,14.82,20.22,0,34.29-8.95,34.94-9.37.81-.6,1.51-2.02,1.51-3.02v-31.83c0-1.97-1.6-3.64-3.5-3.64Z"/>
      <path class="cls-1" d="M956.25,178.1c0-16.88-14.04-30.61-31.3-30.61h-36c-2.01,0-3.64,1.63-3.64,3.64v92.02c0,2.01,1.63,3.64,3.64,3.64h5.42c1.94,0,3.64-1.7,3.64-3.64v-34.45h24.93l18.21,36.28c.21.42,1.06,1.8,3.12,1.8h7.09c1.4,0,2.58-.63,3.23-1.72.67-1.11.67-2.56.01-3.79l-18.52-34.34c12.47-5.43,20.17-16.39,20.17-28.85ZM943.27,178.24c0,10.64-8.53,19.29-19.02,19.29h-25.97v-37.9h25.97c10.13,0,19.02,8.69,19.02,18.6Z"/>
      <path class="cls-1" d="M1035.59,147.49h-54.77c-2.01,0-3.64,1.63-3.64,3.64v92.02c0,2.01,1.63,3.64,3.64,3.64h54.77c2.01,0,3.64-1.63,3.64-3.64v-4.03c0-2.01-1.63-3.64-3.64-3.64h-45.71v-33.45h38.9c2.01,0,3.64-1.63,3.64-3.64v-4.03c0-1.94-1.7-3.64-3.64-3.64h-38.9v-31.92h45.71c2.01,0,3.64-1.63,3.64-3.64v-4.03c0-2.01-1.63-3.64-3.64-3.64Z"/>
      <path class="cls-1" d="M1117.88,147.49h-54.77c-2.01,0-3.64,1.63-3.64,3.64v92.02c0,2.01,1.63,3.64,3.64,3.64h54.77c2.01,0,3.64-1.63,3.64-3.64v-4.03c0-2.01-1.63-3.64-3.64-3.64h-45.71v-33.45h38.9c2.01,0,3.64-1.63,3.64-3.64v-4.03c0-1.94-1.7-3.64-3.64-3.64h-38.9v-31.92h45.71c2.01,0,3.64-1.63,3.64-3.64v-4.03c0-2.01-1.63-3.64-3.64-3.64Z"/>
      <path class="cls-1" d="M1219.35,147.49h-4.87c-2.01,0-3.64,1.63-3.64,3.64v71.59l-61.49-76.62h-3.95c-1.97,0-3.64,1.6-3.64,3.5v93.55c0,1.94,1.7,3.64,3.64,3.64h4.87c2.01,0,3.64-1.63,3.64-3.64v-72.95l62.16,77.6.3.38h2.98c1.97,0,3.64-1.6,3.64-3.5v-93.55c0-1.94-1.7-3.64-3.64-3.64Z"/>
      <path class="cls-1" d="M1384.75,147.49h-5.84c-1.49,0-3.04,1.2-3.47,2.69l-18.28,69.64-22.89-71.51c-.43-1.28-1.82-2.21-3.31-2.21h-2.5c-1.56,0-2.86.87-3.32,2.23l-22.48,71.49-18.69-69.66c-.42-1.47-1.98-2.67-3.46-2.67h-5.84c-1.28,0-2.34.48-3,1.35-.65.87-.82,2.03-.47,3.26l26.26,93.38c.38,1.54,1.88,2.7,3.47,2.7h2.22c1.31,0,2.64-.86,3.26-2.08l23.09-73.44,23.44,73.29.06.14c.61,1.23,1.95,2.08,3.26,2.08h2.22c1.59,0,3.09-1.16,3.46-2.68l26.27-93.41c.35-1.24.19-2.4-.47-3.26-.66-.87-1.72-1.35-3-1.35Z"/>
      <path class="cls-1" d="M1448.83,146.1c-13.7,0-26.51,5.31-36.09,14.96-9.55,9.63-14.82,22.49-14.82,36.22s5.26,26.53,14.82,36.08c9.56,9.56,22.37,14.82,36.08,14.82s26.56-5.26,36.15-14.82c9.6-9.56,14.89-22.38,14.89-36.09,0-28.22-22.9-51.18-51.04-51.18ZM1448.83,236.46c-21.6,0-39.17-17.57-39.17-39.17s17.57-39.45,39.17-39.45,39.31,17.7,39.31,39.45-17.64,39.17-39.31,39.17Z"/>
      <path class="cls-1" d="M1562.95,146.1c-13.7,0-26.51,5.31-36.09,14.96-9.55,9.63-14.82,22.49-14.82,36.22s5.26,26.53,14.82,36.08c9.56,9.56,22.37,14.82,36.08,14.82s26.56-5.26,36.15-14.82c9.6-9.56,14.89-22.38,14.89-36.09,0-28.22-22.9-51.18-51.04-51.18ZM1562.95,236.46c-21.6,0-39.17-17.57-39.17-39.17s17.57-39.45,39.17-39.45,39.31,17.7,39.31,39.45-17.64,39.17-39.31,39.17Z"/>
      <path class="cls-1" d="M1667.89,147.49h-31.14c-1.9,0-3.5,1.67-3.5,3.64v92.02c0,1.97,1.6,3.64,3.5,3.64h31.14c27.46,0,49.79-22.34,49.79-49.79s-22.34-49.51-49.79-49.51ZM1704.01,197.01c0,22.13-16.12,38.2-38.34,38.2h-19.85v-76.26h19.85c22.21,0,38.34,16.01,38.34,38.06Z"/>
    </g>
    <g>
      <path class="cls-1" d="M801.36,445.26c-1.56-1.45-2.34-3.4-2.34-5.86,0-.27.03-.74.08-1.39l1.31-10.62c.22-1.86.82-3.49,1.8-4.9.98-1.41,2.25-2.5,3.81-3.28s3.29-1.17,5.21-1.17c2.65,0,4.76.7,6.31,2.09,1.56,1.39,2.34,3.28,2.34,5.66,0,.27-.03.71-.08,1.31v.04c-.06.3-.21.45-.45.45l-3.03.16c-.27,0-.4-.12-.37-.37v-.12c.05-.44.08-.75.08-.94,0-1.48-.47-2.66-1.41-3.55-.94-.89-2.21-1.33-3.79-1.33-1.75,0-3.23.53-4.45,1.6-1.22,1.07-1.93,2.47-2.15,4.22l-1.35,10.91c-.03.19-.04.48-.04.86,0,1.5.46,2.71,1.39,3.61.93.9,2.21,1.35,3.85,1.35,1.75,0,3.23-.53,4.43-1.6,1.2-1.07,1.91-2.47,2.13-4.22v-.08c.05-.25.21-.37.45-.37l2.99.16c.27,0,.38.14.33.41-.22,1.8-.81,3.4-1.78,4.78-.97,1.38-2.23,2.45-3.79,3.22-1.56.77-3.29,1.15-5.21,1.15-2.62,0-4.72-.72-6.27-2.17Z"/>
      <path class="cls-1" d="M836.13,426.52c.19.08.23.25.12.49l-1.03,3.07c-.08.25-.25.33-.49.25-.44-.19-.96-.29-1.56-.29l-.57.04c-1.23.06-2.3.5-3.22,1.33-.92.83-1.46,1.92-1.62,3.26l-1.48,11.97c-.06.27-.21.41-.45.41h-3.03c-.27,0-.38-.14-.33-.41l2.46-20.05c.05-.27.21-.41.45-.41h2.99c.14,0,.24.04.31.12.07.08.09.18.06.29l-.29,2.17c0,.08.02.13.06.14.04.01.08,0,.1-.06,1.42-1.91,3.17-2.87,5.25-2.87.85,0,1.6.18,2.25.53Z"/>
      <path class="cls-1" d="M852.03,426.19h3.03c.27,0,.38.14.33.41l-2.46,20.05c0,.11-.04.21-.12.29s-.19.12-.33.12h-2.99c-.25,0-.37-.14-.37-.41l.29-2.3c.03-.08.01-.13-.04-.14-.05-.01-.1.02-.12.1-1.42,2.05-3.33,3.08-5.74,3.08-1.75,0-3.21-.53-4.39-1.6-1.18-1.07-1.89-2.49-2.13-4.26-.05-.6-.08-1.05-.08-1.35,0-.76.1-1.94.29-3.53.14-1.17.29-2.17.47-2.99.18-.82.42-1.58.72-2.3.63-1.61,1.65-2.93,3.08-3.96,1.42-1.02,3.05-1.54,4.88-1.54,2.41,0,4,.97,4.8,2.91.03.08.06.12.1.1.04-.01.08-.06.1-.14l.25-2.13c.05-.27.21-.41.45-.41ZM849.98,439.17c.11-.51.23-1.33.37-2.48.16-1.15.25-2.12.25-2.91,0-.27-.03-.66-.08-1.15-.14-.98-.53-1.79-1.17-2.42-.64-.63-1.5-.94-2.56-.94-1.12,0-2.11.31-2.97.94-.86.63-1.46,1.45-1.78,2.46-.19.41-.34.86-.45,1.35-.11.49-.25,1.35-.41,2.58-.16,1.42-.25,2.36-.25,2.83,0,.38.04.77.12,1.15.08,1.01.48,1.83,1.19,2.46.71.63,1.63.94,2.75.94s2.03-.32,2.81-.96c.78-.64,1.36-1.46,1.74-2.44.19-.44.34-.91.45-1.41Z"/>
      <path class="cls-1" d="M867.63,422.58c-.53.52-.88,1.5-1.05,2.95l-.08.49c0,.11.05.16.16.16h4.18c.11,0,.2.04.27.12s.09.18.06.29l-.33,2.79c-.05.27-.21.41-.45.41h-4.18c-.11,0-.16.06-.16.16l-2.05,16.69c-.03.11-.08.21-.16.29s-.18.12-.29.12h-3.03c-.25,0-.37-.14-.37-.41l2.05-16.69s.03-.06,0-.1c-.03-.04-.07-.06-.12-.06h-2.67c-.27,0-.38-.14-.33-.41l.33-2.79c.05-.27.21-.41.45-.41h2.67c.11,0,.16-.05.16-.16l.08-.74c.22-1.8.6-3.2,1.15-4.18s1.33-1.69,2.36-2.11c1.03-.42,2.43-.64,4.2-.64h1.35c.27,0,.38.14.33.41l-.29,2.62c-.05.27-.21.41-.45.41h-.98c-1.34,0-2.28.26-2.81.78Z"/>
      <path class="cls-1" d="M884.79,429.43h-4.31c-.11,0-.16.06-.16.16l-1.35,10.86c-.03.19-.04.45-.04.78,0,.88.23,1.5.68,1.89.45.38,1.14.57,2.07.57h1.15c.14,0,.24.04.31.12.07.08.09.18.06.29l-.33,2.54c0,.27-.14.41-.41.41-.88.05-1.49.08-1.85.08-1.83,0-3.21-.29-4.14-.88-.93-.59-1.39-1.66-1.39-3.22,0-.25.03-.64.08-1.19l1.52-12.26c0-.11-.06-.16-.16-.16h-2.42c-.27,0-.38-.14-.33-.41l.29-2.42c.05-.27.21-.41.45-.41h2.42c.11,0,.16-.05.16-.16l.61-4.84c.05-.27.21-.41.45-.41h2.87c.11,0,.2.04.27.12s.09.18.06.29l-.57,4.84s-.03.06,0,.1.07.06.12.06h4.3c.27,0,.38.14.33.41l-.29,2.42c-.05.27-.2.41-.45.41Z"/>
      <path class="cls-1" d="M904.88,437.79c-.03.27-.18.41-.45.41h-12.71c-.11,0-.16.06-.16.16-.06.66-.08,1.09-.08,1.31,0,.27.03.55.08.82.14,1.09.61,1.95,1.41,2.56.81.62,1.89.92,3.26.92,1.94,0,3.55-.83,4.84-2.5.16-.27.34-.31.53-.12l2.09,1.56c.16.16.18.34.04.53-.9,1.26-2.08,2.23-3.53,2.93-1.45.7-3.03,1.05-4.76,1.05-1.94,0-3.51-.43-4.71-1.29-1.2-.86-2.05-2.11-2.54-3.75-.27-.93-.41-2.02-.41-3.28,0-.52.05-1.38.16-2.58.14-1.04.28-1.91.43-2.62.15-.71.35-1.35.59-1.93.71-1.89,1.84-3.38,3.4-4.47,1.56-1.09,3.36-1.64,5.41-1.64,2.62,0,4.52.67,5.68,2.01,1.16,1.34,1.74,3.29,1.74,5.86,0,.96-.11,2.31-.33,4.06ZM894.45,430.15c-.81.59-1.41,1.37-1.82,2.36-.25.6-.45,1.37-.62,2.3-.03.11.01.16.12.16h9.1c.11,0,.16-.05.16-.16.05-.66.08-1.09.08-1.31,0-1.26-.36-2.28-1.09-3.05-.72-.78-1.73-1.17-3.01-1.17-1.15,0-2.12.29-2.93.88Z"/>
      <path class="cls-1" d="M924.72,418.48c.08-.08.19-.12.33-.12h2.99c.14,0,.24.04.31.12s.09.18.06.29l-3.44,27.88c0,.11-.04.21-.12.29s-.19.12-.33.12h-2.99c-.25,0-.37-.14-.37-.41l.16-1.35c.03-.05.02-.1-.02-.12-.04-.03-.09-.01-.14.04-.66.71-1.41,1.25-2.25,1.62-.85.37-1.74.55-2.67.55-1.91,0-3.44-.48-4.59-1.46-1.15-.97-1.9-2.34-2.25-4.12-.19-.79-.29-1.72-.29-2.79,0-.87.05-1.69.16-2.46.25-1.94.67-3.59,1.27-4.96.77-1.8,1.85-3.21,3.26-4.22,1.41-1.01,3.1-1.52,5.06-1.52.93,0,1.77.18,2.52.55s1.37.9,1.87,1.58c.05.06.1.07.14.04.04-.03.06-.07.06-.12l1.15-9.14c0-.11.04-.21.12-.29ZM922.31,436.61c.11-.76.16-1.54.16-2.34,0-1.17-.16-2.15-.49-2.91-.63-1.39-1.67-2.09-3.12-2.09-1.56,0-2.83.66-3.81,1.97-1.01,1.37-1.65,3.17-1.93,5.41-.08.74-.12,1.41-.12,2.01,0,1.23.16,2.25.49,3.07.27.74.71,1.3,1.31,1.68.6.38,1.34.57,2.21.57,1.5,0,2.76-.74,3.77-2.21.77-1.17,1.27-2.9,1.52-5.17Z"/>
      <path class="cls-1" d="M956.91,434.02c0,.9-.05,1.75-.16,2.54-.25,2.08-.71,3.83-1.39,5.25-.77,1.78-1.85,3.15-3.24,4.12-1.39.97-3.05,1.46-4.96,1.46-.93,0-1.77-.18-2.52-.55-.75-.37-1.37-.91-1.87-1.62-.06-.05-.1-.07-.14-.04-.04.03-.06.07-.06.12l-.16,1.35c-.06.27-.21.41-.45.41h-3.03c-.27,0-.38-.14-.33-.41l3.4-27.88c.05-.27.21-.41.45-.41h3.03c.27,0,.38.14.33.41l-1.11,9.14c0,.16.05.19.16.08.68-.68,1.45-1.21,2.3-1.58.85-.37,1.72-.55,2.62-.55,1.97,0,3.53.51,4.69,1.52,1.16,1.01,1.91,2.42,2.23,4.22.14.6.21,1.41.21,2.42ZM952.89,436.65c.08-.66.12-1.27.12-1.84,0-1.48-.25-2.67-.74-3.57-.3-.63-.73-1.11-1.29-1.46-.56-.34-1.22-.51-1.99-.51-1.5,0-2.72.7-3.65,2.09-.85,1.26-1.41,3.01-1.68,5.25-.11,1.09-.16,1.83-.16,2.21,0,1.18.16,2.16.49,2.95.6,1.48,1.67,2.21,3.2,2.21,1.75,0,3.1-.75,4.06-2.25.82-1.23,1.37-2.92,1.64-5.08Z"/>
      <path class="cls-1" d="M958.1,455.1c-.05-.08-.07-.18-.04-.29l.29-2.42c.05-.27.21-.41.45-.41h.08c1.07-.03,1.92-.16,2.56-.41.64-.25,1.2-.7,1.68-1.37.48-.67.99-1.67,1.54-3.01.03-.03.03-.11,0-.25l-4.14-20.29v-.08c0-.25.12-.37.37-.37h3.24c.22,0,.35.11.41.33l2.62,15.46c0,.06.03.08.1.08s.12-.03.14-.08l6.31-15.46c.14-.22.31-.33.53-.33h3.16c.3,0,.38.15.25.45l-9.92,21.85c-.85,1.86-1.63,3.25-2.34,4.18-.71.93-1.59,1.58-2.62,1.97-1.04.38-2.45.57-4.22.57h-.25c-.08,0-.15-.04-.21-.12Z"/>
      <path class="cls-1" d="M1003.01,427.52c1.11,1.08,1.66,2.55,1.66,4.41,0,.25-.03.64-.08,1.19l-1.64,13.53c-.03.11-.08.21-.16.29s-.18.12-.29.12h-3.03c-.25,0-.37-.14-.37-.41l1.6-12.75c.03-.16.04-.41.04-.74,0-1.15-.33-2.08-.98-2.79-.66-.71-1.56-1.07-2.71-1.07-1.29,0-2.37.42-3.26,1.27-.89.85-1.41,1.94-1.58,3.28l-1.56,12.79c-.06.27-.21.41-.45.41h-3.03c-.27,0-.38-.14-.33-.41l2.46-20.05c.05-.27.21-.41.45-.41h2.99c.14,0,.24.04.31.12.07.08.09.18.06.29l-.21,1.48c0,.06.02.1.06.12.04.03.08.01.1-.04,1.31-1.5,3.09-2.25,5.33-2.25,1.97,0,3.5.54,4.61,1.62Z"/>
      <path class="cls-1" d="M1023.86,426.19h3.03c.27,0,.38.14.33.41l-2.46,20.05c0,.11-.04.21-.12.29s-.19.12-.33.12h-2.99c-.25,0-.37-.14-.37-.41l.29-2.3c.03-.08.01-.13-.04-.14-.05-.01-.1.02-.12.1-1.42,2.05-3.33,3.08-5.74,3.08-1.75,0-3.21-.53-4.39-1.6-1.18-1.07-1.89-2.49-2.13-4.26-.05-.6-.08-1.05-.08-1.35,0-.76.1-1.94.29-3.53.14-1.17.29-2.17.47-2.99.18-.82.42-1.58.72-2.3.63-1.61,1.65-2.93,3.08-3.96,1.42-1.02,3.05-1.54,4.88-1.54,2.41,0,4,.97,4.8,2.91.03.08.06.12.1.1.04-.01.08-.06.1-.14l.25-2.13c.05-.27.21-.41.45-.41ZM1021.81,439.17c.11-.51.23-1.33.37-2.48.16-1.15.25-2.12.25-2.91,0-.27-.03-.66-.08-1.15-.14-.98-.53-1.79-1.17-2.42-.64-.63-1.5-.94-2.56-.94-1.12,0-2.11.31-2.97.94-.86.63-1.46,1.45-1.78,2.46-.19.41-.34.86-.45,1.35-.11.49-.25,1.35-.41,2.58-.16,1.42-.25,2.36-.25,2.83,0,.38.04.77.12,1.15.08,1.01.48,1.83,1.19,2.46.71.63,1.63.94,2.75.94s2.03-.32,2.81-.96c.78-.64,1.36-1.46,1.74-2.44.19-.44.34-.91.45-1.41Z"/>
      <path class="cls-1" d="M1042.02,429.43h-4.31c-.11,0-.16.06-.16.16l-1.35,10.86c-.03.19-.04.45-.04.78,0,.88.23,1.5.68,1.89.45.38,1.14.57,2.07.57h1.15c.14,0,.24.04.31.12.07.08.09.18.06.29l-.33,2.54c0,.27-.14.41-.41.41-.88.05-1.49.08-1.85.08-1.83,0-3.21-.29-4.14-.88-.93-.59-1.39-1.66-1.39-3.22,0-.25.03-.64.08-1.19l1.52-12.26c0-.11-.06-.16-.16-.16h-2.42c-.27,0-.38-.14-.33-.41l.29-2.42c.05-.27.21-.41.45-.41h2.42c.11,0,.16-.05.16-.16l.61-4.84c.05-.27.21-.41.45-.41h2.87c.11,0,.2.04.27.12s.09.18.06.29l-.57,4.84s-.03.06,0,.1.07.06.12.06h4.3c.27,0,.38.14.33.41l-.29,2.42c-.05.27-.2.41-.45.41Z"/>
      <path class="cls-1" d="M1059.65,426.31c.08-.08.19-.12.33-.12h2.95c.14,0,.24.04.31.12s.09.18.06.29l-2.46,20.05c-.05.27-.21.41-.45.41h-2.99c-.27,0-.38-.14-.33-.41l.16-1.52c.03-.05.02-.09-.02-.1s-.09,0-.14.06c-1.26,1.5-2.99,2.25-5.21,2.25-1.83,0-3.36-.51-4.59-1.52-1.23-1.01-1.84-2.43-1.84-4.26,0-.44.01-.76.04-.98l1.72-13.98c.05-.27.21-.41.45-.41h2.99c.11,0,.2.04.27.12.07.08.09.18.06.29l-1.56,12.75c-.03.19-.04.47-.04.82,0,1.18.31,2.1.94,2.77.63.67,1.53,1,2.71,1,1.34,0,2.45-.42,3.34-1.25.89-.83,1.41-1.95,1.58-3.34l1.6-12.75c0-.11.04-.21.12-.29Z"/>
      <path class="cls-1" d="M1080.07,426.52c.19.08.23.25.12.49l-1.03,3.07c-.08.25-.25.33-.49.25-.44-.19-.96-.29-1.56-.29l-.57.04c-1.23.06-2.3.5-3.22,1.33-.92.83-1.46,1.92-1.62,3.26l-1.48,11.97c-.06.27-.21.41-.45.41h-3.03c-.27,0-.38-.14-.33-.41l2.46-20.05c.05-.27.21-.41.45-.41h2.99c.14,0,.24.04.31.12.07.08.09.18.06.29l-.29,2.17c0,.08.02.13.06.14.04.01.08,0,.1-.06,1.42-1.91,3.17-2.87,5.25-2.87.85,0,1.6.18,2.25.53Z"/>
      <path class="cls-1" d="M1098.44,437.79c-.03.27-.18.41-.45.41h-12.71c-.11,0-.16.06-.16.16-.06.66-.08,1.09-.08,1.31,0,.27.03.55.08.82.14,1.09.61,1.95,1.41,2.56.81.62,1.89.92,3.26.92,1.94,0,3.55-.83,4.84-2.5.16-.27.34-.31.53-.12l2.09,1.56c.16.16.18.34.04.53-.9,1.26-2.08,2.23-3.53,2.93-1.45.7-3.03,1.05-4.76,1.05-1.94,0-3.51-.43-4.71-1.29-1.2-.86-2.05-2.11-2.54-3.75-.27-.93-.41-2.02-.41-3.28,0-.52.05-1.38.16-2.58.14-1.04.28-1.91.43-2.62.15-.71.35-1.35.59-1.93.71-1.89,1.84-3.38,3.4-4.47,1.56-1.09,3.36-1.64,5.41-1.64,2.62,0,4.52.67,5.68,2.01,1.16,1.34,1.74,3.29,1.74,5.86,0,.96-.11,2.31-.33,4.06ZM1088,430.15c-.81.59-1.41,1.37-1.82,2.36-.25.6-.45,1.37-.62,2.3-.03.11.01.16.12.16h9.1c.11,0,.16-.05.16-.16.05-.66.08-1.09.08-1.31,0-1.26-.36-2.28-1.09-3.05-.72-.78-1.73-1.17-3.01-1.17-1.15,0-2.12.29-2.93.88Z"/>
      <path class="cls-1" d="M1100.45,450.46c-.06-.08-.06-.19,0-.33l2.71-9.1c.05-.25.21-.37.45-.37h2.67c.14,0,.23.04.29.12s.05.19,0,.33l-3.48,9.1c-.03.11-.08.2-.16.27-.08.07-.18.1-.29.1h-1.89c-.14,0-.23-.04-.29-.12Z"/>
      <path class="cls-1" d="M1135.17,426.19h3.03c.27,0,.38.14.33.41l-2.38,19.39c-.41,3.31-1.61,5.67-3.59,7.09-1.98,1.42-4.5,2.13-7.56,2.13-.44,0-1.09-.03-1.97-.08-.25-.03-.36-.18-.33-.45l.45-2.83c.03-.14.09-.24.18-.31.1-.07.2-.09.31-.06.38.03.93.04,1.64.04,2.24,0,3.92-.43,5.02-1.29,1.11-.86,1.8-2.32,2.07-4.37l.08-.74c0-.16-.07-.19-.21-.08-1.26,1.34-2.97,2.01-5.12,2.01-1.72,0-3.23-.46-4.51-1.39-1.29-.93-2.08-2.3-2.38-4.1-.08-.57-.12-1.19-.12-1.84,0-.87.07-1.93.21-3.16.27-2.19.7-3.94,1.27-5.25.71-1.64,1.77-2.96,3.18-3.96,1.41-1,2.99-1.5,4.74-1.5,2.16,0,3.79.68,4.88,2.05.08.14.15.12.2-.04l.12-1.27c.05-.27.21-.41.45-.41ZM1133.14,439.07c.1-.46.23-1.31.39-2.54.16-1.48.25-2.42.25-2.83,0-.22-.03-.55-.08-.98-.08-1.01-.45-1.84-1.11-2.48-.66-.64-1.54-.96-2.67-.96s-2.06.32-2.89.96c-.83.64-1.47,1.47-1.91,2.48-.44.9-.74,2.17-.9,3.81-.14,1.23-.2,2.1-.2,2.62s.04.93.12,1.23c.14,1.01.56,1.84,1.27,2.48.71.64,1.61.96,2.71.96,1.15,0,2.13-.32,2.95-.96.82-.64,1.39-1.47,1.72-2.48.14-.41.25-.85.35-1.31Z"/>
      <path class="cls-1" d="M1156.08,426.31c.08-.08.19-.12.33-.12h2.95c.14,0,.24.04.31.12s.09.18.06.29l-2.46,20.05c-.05.27-.21.41-.45.41h-2.99c-.27,0-.38-.14-.33-.41l.16-1.52c.03-.05.02-.09-.02-.1s-.09,0-.14.06c-1.26,1.5-2.99,2.25-5.21,2.25-1.83,0-3.36-.51-4.59-1.52-1.23-1.01-1.84-2.43-1.84-4.26,0-.44.01-.76.04-.98l1.72-13.98c.05-.27.21-.41.45-.41h2.99c.11,0,.2.04.27.12.07.08.09.18.06.29l-1.56,12.75c-.03.19-.04.47-.04.82,0,1.18.31,2.1.94,2.77.63.67,1.53,1,2.71,1,1.34,0,2.45-.42,3.34-1.25.89-.83,1.41-1.95,1.58-3.34l1.6-12.75c0-.11.04-.21.12-.29Z"/>
      <path class="cls-1" d="M1163.17,446.61l2.46-20.01c0-.11.04-.21.12-.29s.18-.12.29-.12h3.03c.25,0,.37.14.37.41l-2.46,20.01c-.06.27-.21.41-.45.41h-3.03c-.27,0-.38-.14-.33-.41ZM1166.41,422.3c-.41-.41-.62-.94-.62-1.6,0-.87.28-1.6.84-2.17.56-.57,1.25-.86,2.07-.86.68,0,1.23.2,1.64.59.41.4.62.94.62,1.62,0,.85-.29,1.56-.86,2.15-.57.59-1.26.88-2.05.88-.68,0-1.23-.21-1.64-.62Z"/>
      <path class="cls-1" d="M1189.09,418.48c.08-.08.19-.12.33-.12h2.99c.14,0,.24.04.31.12s.09.18.06.29l-3.44,27.88c0,.11-.04.21-.12.29s-.19.12-.33.12h-2.99c-.25,0-.37-.14-.37-.41l.16-1.35c.03-.05.02-.1-.02-.12-.04-.03-.09-.01-.14.04-.66.71-1.41,1.25-2.25,1.62-.85.37-1.74.55-2.67.55-1.91,0-3.44-.48-4.59-1.46-1.15-.97-1.9-2.34-2.25-4.12-.19-.79-.29-1.72-.29-2.79,0-.87.05-1.69.16-2.46.25-1.94.67-3.59,1.27-4.96.77-1.8,1.85-3.21,3.26-4.22,1.41-1.01,3.1-1.52,5.06-1.52.93,0,1.77.18,2.52.55s1.37.9,1.87,1.58c.05.06.1.07.14.04.04-.03.06-.07.06-.12l1.15-9.14c0-.11.04-.21.12-.29ZM1186.67,436.61c.11-.76.16-1.54.16-2.34,0-1.17-.16-2.15-.49-2.91-.63-1.39-1.67-2.09-3.12-2.09-1.56,0-2.83.66-3.81,1.97-1.01,1.37-1.65,3.17-1.93,5.41-.08.74-.12,1.41-.12,2.01,0,1.23.16,2.25.49,3.07.27.74.71,1.3,1.31,1.68.6.38,1.34.57,2.21.57,1.5,0,2.76-.74,3.77-2.21.77-1.17,1.27-2.9,1.52-5.17Z"/>
      <path class="cls-1" d="M1212.54,437.79c-.03.27-.18.41-.45.41h-12.71c-.11,0-.16.06-.16.16-.06.66-.08,1.09-.08,1.31,0,.27.03.55.08.82.14,1.09.61,1.95,1.41,2.56.81.62,1.89.92,3.26.92,1.94,0,3.55-.83,4.84-2.5.16-.27.34-.31.53-.12l2.09,1.56c.16.16.18.34.04.53-.9,1.26-2.08,2.23-3.53,2.93-1.45.7-3.03,1.05-4.76,1.05-1.94,0-3.51-.43-4.71-1.29-1.2-.86-2.05-2.11-2.54-3.75-.27-.93-.41-2.02-.41-3.28,0-.52.05-1.38.16-2.58.14-1.04.28-1.91.43-2.62.15-.71.35-1.35.59-1.93.71-1.89,1.84-3.38,3.4-4.47,1.56-1.09,3.36-1.64,5.41-1.64,2.62,0,4.52.67,5.68,2.01,1.16,1.34,1.74,3.29,1.74,5.86,0,.96-.11,2.31-.33,4.06ZM1202.1,430.15c-.81.59-1.41,1.37-1.82,2.36-.25.6-.45,1.37-.62,2.3-.03.11.01.16.12.16h9.1c.11,0,.16-.05.16-.16.05-.66.08-1.09.08-1.31,0-1.26-.36-2.28-1.09-3.05-.72-.78-1.73-1.17-3.01-1.17-1.15,0-2.12.29-2.93.88Z"/>
      <path class="cls-1" d="M1232.38,418.48c.08-.08.19-.12.33-.12h2.99c.14,0,.24.04.31.12s.09.18.06.29l-3.44,27.88c0,.11-.04.21-.12.29s-.19.12-.33.12h-2.99c-.25,0-.37-.14-.37-.41l.16-1.35c.03-.05.02-.1-.02-.12-.04-.03-.09-.01-.14.04-.66.71-1.41,1.25-2.25,1.62-.85.37-1.74.55-2.67.55-1.91,0-3.44-.48-4.59-1.46-1.15-.97-1.9-2.34-2.25-4.12-.19-.79-.29-1.72-.29-2.79,0-.87.05-1.69.16-2.46.25-1.94.67-3.59,1.27-4.96.77-1.8,1.85-3.21,3.26-4.22,1.41-1.01,3.1-1.52,5.06-1.52.93,0,1.77.18,2.52.55s1.37.9,1.87,1.58c.05.06.1.07.14.04.04-.03.06-.07.06-.12l1.15-9.14c0-.11.04-.21.12-.29ZM1229.96,436.61c.11-.76.16-1.54.16-2.34,0-1.17-.16-2.15-.49-2.91-.63-1.39-1.67-2.09-3.12-2.09-1.56,0-2.83.66-3.81,1.97-1.01,1.37-1.65,3.17-1.93,5.41-.08.74-.12,1.41-.12,2.01,0,1.23.16,2.25.49,3.07.27.74.71,1.3,1.31,1.68.6.38,1.34.57,2.21.57,1.5,0,2.76-.74,3.77-2.21.77-1.17,1.27-2.9,1.52-5.17Z"/>
      <path class="cls-1" d="M1264.57,434.02c0,.9-.05,1.75-.16,2.54-.25,2.08-.71,3.83-1.39,5.25-.77,1.78-1.85,3.15-3.24,4.12-1.39.97-3.05,1.46-4.96,1.46-.93,0-1.77-.18-2.52-.55-.75-.37-1.37-.91-1.87-1.62-.06-.05-.1-.07-.14-.04-.04.03-.06.07-.06.12l-.16,1.35c-.06.27-.21.41-.45.41h-3.03c-.27,0-.38-.14-.33-.41l3.4-27.88c.05-.27.21-.41.45-.41h3.03c.27,0,.38.14.33.41l-1.11,9.14c0,.16.05.19.16.08.68-.68,1.45-1.21,2.3-1.58.85-.37,1.72-.55,2.62-.55,1.97,0,3.53.51,4.69,1.52,1.16,1.01,1.91,2.42,2.23,4.22.14.6.21,1.41.21,2.42ZM1260.55,436.65c.08-.66.12-1.27.12-1.84,0-1.48-.25-2.67-.74-3.57-.3-.63-.73-1.11-1.29-1.46-.56-.34-1.22-.51-1.99-.51-1.5,0-2.72.7-3.65,2.09-.85,1.26-1.41,3.01-1.68,5.25-.11,1.09-.16,1.83-.16,2.21,0,1.18.16,2.16.49,2.95.6,1.48,1.67,2.21,3.2,2.21,1.75,0,3.1-.75,4.06-2.25.82-1.23,1.37-2.92,1.64-5.08Z"/>
      <path class="cls-1" d="M1265.76,455.1c-.05-.08-.07-.18-.04-.29l.29-2.42c.05-.27.21-.41.45-.41h.08c1.07-.03,1.92-.16,2.56-.41.64-.25,1.2-.7,1.68-1.37.48-.67.99-1.67,1.54-3.01.03-.03.03-.11,0-.25l-4.14-20.29v-.08c0-.25.12-.37.37-.37h3.24c.22,0,.35.11.41.33l2.62,15.46c0,.06.03.08.1.08s.12-.03.14-.08l6.31-15.46c.14-.22.31-.33.53-.33h3.16c.3,0,.38.15.25.45l-9.92,21.85c-.85,1.86-1.63,3.25-2.34,4.18-.71.93-1.59,1.58-2.62,1.97-1.04.38-2.45.57-4.22.57h-.25c-.08,0-.15-.04-.21-.12Z"/>
      <path class="cls-1" d="M1294.49,446.65l3.4-27.88c.05-.27.21-.41.45-.41h3.03c.27,0,.38.14.33.41l-3.4,27.88c-.06.27-.21.41-.45.41h-3.03c-.27,0-.38-.14-.33-.41Z"/>
      <path class="cls-1" d="M1307.06,445.85c-1.33-1.02-2.17-2.45-2.52-4.28-.16-.79-.25-1.71-.25-2.75,0-.76.04-1.52.12-2.25.27-1.99.71-3.63,1.31-4.92.79-1.8,1.98-3.22,3.57-4.24,1.58-1.02,3.39-1.54,5.41-1.54,1.91,0,3.51.51,4.8,1.54,1.28,1.03,2.12,2.43,2.5,4.2.16.77.25,1.64.25,2.62,0,.74-.04,1.5-.12,2.3-.22,1.91-.66,3.59-1.31,5.04-.82,1.83-2.01,3.26-3.57,4.28s-3.31,1.54-5.25,1.54-3.62-.51-4.94-1.54ZM1315.36,443.06c.87-.61,1.54-1.48,2.01-2.6.44-1.17.74-2.46.9-3.85.11-1.2.16-2.05.16-2.54,0-.35-.03-.78-.08-1.27-.22-1.12-.69-1.99-1.42-2.6-.72-.61-1.65-.92-2.77-.92s-2.08.31-2.95.92c-.88.62-1.56,1.48-2.05,2.6-.38.93-.68,2.2-.9,3.81-.08.74-.12,1.45-.12,2.13s.04,1.23.12,1.72c.16,1.09.62,1.95,1.35,2.58.74.63,1.67.94,2.79.94s2.08-.31,2.95-.92Z"/>
      <path class="cls-1" d="M1329.96,446.98c-.08-.05-.14-.14-.16-.25l-4.02-20.09v-.08c0-.25.12-.37.37-.37h3.32c.11,0,.21.03.29.08.08.06.14.14.16.25l2.54,14.84c.03.06.07.08.12.08s.1-.03.12-.08l6.15-14.84c.14-.22.31-.33.53-.33l3.32.04c.33,0,.42.15.29.45l-8.9,20.05c-.14.22-.31.33-.53.33h-3.36c-.08,0-.16-.03-.25-.08Z"/>
      <path class="cls-1" d="M1361.2,437.79c-.03.27-.18.41-.45.41h-12.71c-.11,0-.16.06-.16.16-.06.66-.08,1.09-.08,1.31,0,.27.03.55.08.82.14,1.09.61,1.95,1.41,2.56.81.62,1.89.92,3.26.92,1.94,0,3.55-.83,4.84-2.5.16-.27.34-.31.53-.12l2.09,1.56c.16.16.18.34.04.53-.9,1.26-2.08,2.23-3.53,2.93-1.45.7-3.03,1.05-4.76,1.05-1.94,0-3.51-.43-4.71-1.29-1.2-.86-2.05-2.11-2.54-3.75-.27-.93-.41-2.02-.41-3.28,0-.52.05-1.38.16-2.58.14-1.04.28-1.91.43-2.62.15-.71.35-1.35.59-1.93.71-1.89,1.84-3.38,3.4-4.47,1.56-1.09,3.36-1.64,5.41-1.64,2.62,0,4.52.67,5.68,2.01,1.16,1.34,1.74,3.29,1.74,5.86,0,.96-.11,2.31-.33,4.06ZM1350.77,430.15c-.81.59-1.41,1.37-1.82,2.36-.25.6-.45,1.37-.62,2.3-.03.11.01.16.12.16h9.1c.11,0,.16-.05.16-.16.05-.66.08-1.09.08-1.31,0-1.26-.36-2.28-1.09-3.05-.72-.78-1.73-1.17-3.01-1.17-1.15,0-2.12.29-2.93.88Z"/>
    </g>
    <g>
      <path class="cls-1" d="M934.84,338.86c-5.26,7.02-11.55,13.23-18.94,18.7-.59.44-1.43.31-1.87-.27l-4.24-5.57c-.47-.62-.31-1.5.34-1.93,7.16-4.75,13.19-10.22,18.22-16.47.48-.6,1.36-.68,1.93-.17l4.38,3.89c.52.46.61,1.25.19,1.81ZM933.18,289.55c1.15-2.75,2.3-5.56,3.39-8.49.24-.63.9-.99,1.55-.84l6.53,1.51c.79.18,1.25,1.03.95,1.79-.65,1.7-1.33,3.38-1.98,5.02-.35.88.29,1.84,1.24,1.84,7.47,0,33.86,0,40.11,0,.74,0,1.34.6,1.34,1.34v6.32c0,.74-.6,1.34-1.34,1.34h-45.42c-.5,0-.96.29-1.19.73-3.06,5.97-6.31,11.38-9.8,16.22-.64.88,0,2.11,1.09,2.11h15.33c.74,0,1.34-.6,1.34-1.34v-9.06c0-.74.6-1.34,1.34-1.34h6.59c.74,0,1.34.6,1.34,1.34v9.06c0,.74.6,1.34,1.34,1.34h24.42c.74,0,1.34.6,1.34,1.34v5.88c0,.74-.6,1.34-1.34,1.34h-24.42c-.74,0-1.34.6-1.34,1.34v24.7c0,6.09-3.27,9.18-9.71,9.18h-8.11c-.63,0-1.17-.43-1.31-1.05l-1.38-6.11c-.2-.9.54-1.73,1.45-1.63,2.16.24,4.24.4,6.16.4,2.38,0,3.62-1.06,3.62-3.09v-22.4c0-.74-.6-1.34-1.34-1.34h-26.66c-.61,0-1.15-.42-1.3-1.01l-1.68-6.59c-.11-.44,0-.89.31-1.23,4.17-4.58,8.14-10.18,11.84-16.8.5-.9-.14-2.01-1.17-2.01h-13.79c-.74,0-1.34-.6-1.34-1.34v-6.32c0-.74.6-1.34,1.34-1.34,4.04,0,16.02,0,19.4,0,.54,0,1.03-.32,1.24-.82ZM988.66,352.5l-4.73,4.8c-.59.59-1.56.51-2.05-.16-4.14-5.71-9.76-11.83-16.9-18.3-.57-.52-.6-1.42-.04-1.96l4.26-4.14c.5-.49,1.3-.51,1.83-.05,6.91,6.03,12.79,12.06,17.72,18.02.44.53.4,1.31-.09,1.8Z"/>
      <path class="cls-1" d="M1073.44,362.49h-6.5c-.74,0-1.34-.6-1.34-1.34v-.41c0-.74-.6-1.34-1.34-1.34h-53.63c-.74,0-1.34.6-1.34,1.34v.41c0,.74-.6,1.34-1.34,1.34h-6.5c-.74,0-1.34-.6-1.34-1.34v-75.97c0-.74.6-1.34,1.34-1.34h72c.74,0,1.34.6,1.34,1.34v75.97c0,.74-.6,1.34-1.34,1.34ZM1065.6,349.94v-56.46c0-.74-.6-1.34-1.34-1.34h-53.63c-.74,0-1.34.6-1.34,1.34v56.46c0,.74.6,1.34,1.34,1.34h53.63c.74,0,1.34-.6,1.34-1.34ZM1061.36,314.31v5.44c0,.74-.6,1.34-1.34,1.34h-10.47c-.74,0-1.34.6-1.34,1.34v15.32c0,.74.6,1.34,1.34,1.34h2.81c.97,0,1.77-.26,2.47-.71.62-.31,1.1-2.38,1.45-6.14.08-.87.95-1.44,1.77-1.16l4.84,1.65c.6.21.98.81.9,1.44-.77,6.05-1.7,9.66-2.87,10.74-1.24,1.06-3.53,1.59-6.88,1.68h-6.44c-2.47,0-4.41-.79-5.65-2.21-1.41-1.59-2.12-3.44-2.12-5.74v-16.22c0-.74-.6-1.34-1.34-1.34h-3.58c-.67,0-1.23.5-1.32,1.16-.92,6.25-2.54,11.25-4.87,14.91-2.82,4.32-7.14,7.86-12.93,10.47-.62.28-1.36.03-1.7-.56l-2.87-4.96c-.4-.69-.12-1.58.61-1.89,4.41-1.91,7.67-4.55,9.92-7.91,1.55-2.49,2.77-5.73,3.52-9.6.16-.83-.47-1.61-1.32-1.61h-9.07c-.74,0-1.34-.6-1.34-1.34v-5.44c0-.74.6-1.34,1.34-1.34h45.16c.74,0,1.34.6,1.34,1.34ZM1056.42,299.31v5.44c0,.74-.6,1.34-1.34,1.34h-35.19c-.74,0-1.34-.6-1.34-1.34v-5.44c0-.74.6-1.34,1.34-1.34h35.19c.74,0,1.34.6,1.34,1.34Z"/>
      <path class="cls-1" d="M1101.7,320.9v-5c0-.74.6-1.34,1.34-1.34h6.41c.74,0,1.34.6,1.34,1.34v5c0,.74.6,1.34,1.34,1.34h9.85c.74,0,1.34.6,1.34,1.34v6.06c0,.74-.6,1.34-1.34,1.34h-9.85c-.74,0-1.34.6-1.34,1.34v.11c0,.47.24.9.64,1.14,3.15,1.9,6.37,3.99,9.65,6.26.6.42.76,1.25.35,1.86l-3.42,5.05c-.51.75-1.61.79-2.17.07-.93-1.19-1.83-2.31-2.68-3.33-.8-.97-2.37-.39-2.37.86v16.45c0,.74-.6,1.34-1.34,1.34h-6.41c-.74,0-1.34-.6-1.34-1.34v-15.94c0-1.35-1.76-1.85-2.47-.71-2.51,4.02-5.25,7.61-8.2,10.78-.58.63-1.61.53-2.09-.18l-3.67-5.45c-.39-.58-.26-1.35.28-1.79,5.23-4.23,9.53-9.09,13.01-14.45.58-.9-.06-2.08-1.13-2.08h-9.13c-.74,0-1.34-.6-1.34-1.34v-6.06c0-.74.6-1.34,1.34-1.34h12.06c.74,0,1.34-.6,1.34-1.34ZM1121.3,287v-5c0-.74.6-1.34,1.34-1.34h6.5c.74,0,1.34.6,1.34,1.34v5c0,.74.6,1.34,1.34,1.34h29.45c.74,0,1.34.6,1.34,1.34v6.14c0,.74-.6,1.34-1.34,1.34h-30.79v.27c0,.62.43,1.16,1.03,1.3,6.38,1.57,11.23,2.9,14.42,3.98,3.53,1.15,7.97,2.91,13.26,5.28.67.3.98,1.09.69,1.76l-2.34,5.41c-.31.71-1.16,1.01-1.85.65-4.71-2.46-9.51-4.62-14.52-6.56-2.99-1.19-5.97-2.14-9.01-2.93-.85-.22-1.67.43-1.67,1.3v8.5c0,.74-.6,1.34-1.34,1.34h-6.5c-.74,0-1.34-.6-1.34-1.34v-15.26c0-1.21-1.46-1.79-2.31-.93-6.4,6.45-15.44,11.86-27.18,16.34-.6.23-1.3,0-1.63-.56l-3.35-5.48c-.46-.76-.07-1.75.79-1.99,8.7-2.47,15.85-5.31,21.42-8.6,1.17-.69.66-2.49-.7-2.49h-17.82c-.74,0-1.34-.6-1.34-1.34v-6.14c0-.74.6-1.34,1.34-1.34h29.45c.74,0,1.34-.6,1.34-1.34ZM1139.49,320.9v-5c0-.74.6-1.34,1.34-1.34h6.32c.74,0,1.34.6,1.34,1.34v5c0,.74.6,1.34,1.34,1.34h13.56c.74,0,1.34.6,1.34,1.34v6.06c0,.74-.6,1.34-1.34,1.34h-9.46c-1.03,0-1.69,1.12-1.17,2.02,3.08,5.32,7.47,10.19,13.18,14.63.59.46.71,1.31.24,1.89l-4.17,5.28c-.52.65-1.5.69-2.05.07-3.58-4.03-6.55-8.27-8.96-12.7-.66-1.22-2.51-.73-2.51.65v17.98c0,.74-.6,1.34-1.34,1.34h-6.32c-.74,0-1.34-.6-1.34-1.34v-18.23c0-1.35-1.78-1.86-2.48-.71-3.07,5.05-6.47,9.49-10.24,13.33-.59.6-1.58.5-2.05-.19l-3.67-5.32c-.4-.58-.27-1.37.28-1.81,5.55-4.38,10.16-9.27,13.82-14.78.6-.9-.04-2.1-1.12-2.1h-5.66c-.74,0-1.34-.6-1.34-1.34v-6.06c0-.74.6-1.34,1.34-1.34h9.76c.74,0,1.34-.6,1.34-1.34Z"/>
      <path class="cls-1" d="M1245.5,284.83v34.39c0,.74-.6,1.34-1.34,1.34h-10.32c-1.27,0-1.83,1.59-.85,2.39,5.21,4.23,12.19,7.77,20.9,10.56.78.25,1.17,1.13.81,1.87l-2.74,5.61c-.31.63-1.06.92-1.71.66-6.11-2.41-11.39-5.07-15.84-8.01-.89-.59-2.07.06-2.07,1.12v26.56c0,.74-.6,1.34-1.34,1.34h-6.59c-.74,0-1.34-.6-1.34-1.34v-31.3c0-.74.6-1.34,1.34-1.34h0c1.19,0,1.81-1.46.95-2.29-1.77-1.72-3.33-3.46-4.64-5.28-.25-.35-.65-.56-1.08-.56h-11.4c-.4,0-.77.18-1.02.48-1.49,1.8-3.13,3.55-4.9,5.22-.89.84-.32,2.33.9,2.33h1.71c.75,0,1.36.61,1.35,1.36-.13,6.56-1.18,12.2-3.16,16.91-2.39,6.14-8.08,11.3-17.06,15.46-.55.26-1.22.1-1.61-.37l-4.3-5.24c-.56-.68-.32-1.71.48-2.07,6.78-3.04,11.27-6.7,13.49-10.96,1.37-2.74,2.27-6.14,2.65-10.18.1-1.12-1.14-1.85-2.07-1.23-4.72,3.16-10.14,6.02-16.28,8.58-.61.25-1.32.03-1.67-.54l-3.44-5.58c-.46-.75-.09-1.72.75-1.98,8.54-2.71,15.33-5.97,20.46-9.78,1.04-.77.48-2.42-.81-2.42h-9.55c-.74,0-1.34-.6-1.34-1.34v-34.39c0-.74.6-1.34,1.34-1.34h59.99c.74,0,1.34.6,1.34,1.34ZM1209.49,296.8v-3.85c0-.74-.6-1.34-1.34-1.34h-15.06c-.74,0-1.34.6-1.34,1.34v3.85c0,.74.6,1.34,1.34,1.34h15.06c.74,0,1.34-.6,1.34-1.34ZM1208.15,305.73h-15.06c-.74,0-1.34.6-1.34,1.34v4.2c0,.74.6,1.34,1.34,1.34h15.06c.74,0,1.34-.6,1.34-1.34v-4.2c0-.74-.6-1.34-1.34-1.34ZM1219.83,298.14h15.41c.74,0,1.34-.6,1.34-1.34v-3.85c0-.74-.6-1.34-1.34-1.34h-15.41c-.74,0-1.34.6-1.34,1.34v3.85c0,.74.6,1.34,1.34,1.34ZM1235.24,305.73h-15.41c-.74,0-1.34.6-1.34,1.34v4.2c0,.74.6,1.34,1.34,1.34h15.41c.74,0,1.34-.6,1.34-1.34v-4.2c0-.74-.6-1.34-1.34-1.34Z"/>
    </g>
  </g>
</svg>